<?xml version="1.0" encoding="UTF-8"?>
<svg width="96" height="96" viewBox="0 0 30 30" fill="none" xmlns="http://www.w3.org/2000/svg">
  <!-- Верхняя иконка: прямоугольник с сеткой 4×3 -->
  <rect x="3" y="2" width="24" height="18" rx="2.5" ry="2.5" stroke="#FFFFFF" stroke-width="1.0" fill="none"/>
  <g fill="#FFFFFF">
    <!-- Первая строка -->
    <circle cx="7.8"  cy="6.5" r="1.0"/>
    <circle cx="12.6" cy="6.5" r="1.0"/>
    <circle cx="17.4" cy="6.5" r="1.0"/>
    <circle cx="22.2" cy="6.5" r="1.0"/>
    <!-- Вторая строка -->
    <circle cx="7.8"  cy="11.0" r="1.0"/>
    <circle cx="12.6" cy="11.0" r="1.0"/>
    <circle cx="17.4" cy="11.0" r="1.0"/>
    <circle cx="22.2" cy="11.0" r="1.0"/>
    <!-- Третья строка -->
    <circle cx="7.8"  cy="15.5" r="1.0"/>
    <circle cx="12.6" cy="15.5" r="1.0"/>
    <circle cx="17.4" cy="15.5" r="1.0"/>
    <circle cx="22.2" cy="15.5" r="1.0"/>
  </g>

  <!-- Нижняя иконка: контур -->
  <rect x="5" y="22" width="20" height="6" rx="2" ry="2" stroke="#FFFFFF" stroke-width="1.0" fill="none"/>
  
  <!-- Горизонтальная линия и точки по центру -->
  <g stroke="#FFFFFF" stroke-width="0.5" stroke-linecap="round" stroke-linejoin="round" fill="none">
    <line x1="9"  y1="25" x2="13" y2="25"/>
    <line x1="13" y1="25" x2="17" y2="25"/>
    <line x1="17" y1="25" x2="21" y2="25"/>
  </g>
  <g fill="#FFFFFF">
    <circle cx="9"  cy="25" r="0.9"/>
    <circle cx="13" cy="25" r="0.9"/>
    <circle cx="17" cy="25" r="0.9"/>
    <circle cx="21" cy="25" r="0.9"/>
  </g>
</svg>
