<?xml version="1.0" encoding="UTF-8"?>
<svg width="96" height="96" viewBox="0 0 24 24" fill="none" xmlns="http://www.w3.org/2000/svg">
<!--Верхняя иконка: квадрат с сеткой-->
  <rect x="3" y="2" width="14" height="12" rx="2" ry="2" stroke="#FFFFFF" stroke-width="1.0" fill="none"/>
<!--Сетка 3×3 точек-->
  <g fill="#FFFFFF">
    <circle cx="6" cy="5" r="0.9"/>
    <circle cx="10" cy="5" r="0.9"/>
    <circle cx="14" cy="5" r="0.9"/>
    <circle cx="6" cy="8" r="0.9"/>
    <circle cx="10" cy="8" r="0.9"/>
    <circle cx="14" cy="8" r="0.9"/>
    <circle cx="6" cy="11" r="0.9"/>
    <circle cx="10" cy="11" r="0.9"/>
    <circle cx="14" cy="11" r="0.9"/>
  </g>
<!--Нижняя иконка: контур-->
  <rect x="4" y="17" width="18" height="6" rx="2" ry="2" stroke="#FFFFFF" stroke-width="1.0" fill="none"/>
<!--Линии-->
  <g stroke="#FFFFFF" stroke-width="0.5" stroke-linecap="round" stroke-linejoin="round" fill="none">
    <line x1="7" y1="20" x2="11" y2="20"/>
    <line x1="11" y1="20" x2="15" y2="20"/>
    <line x1="15" y1="20" x2="19" y2="20"/>
  </g>
<!--Четыре точки-->
  <g fill="#FFFFFF">
    <circle cx="7" cy="20" r="0.9"/>
    <circle cx="11" cy="20" r="0.9"/>
    <circle cx="15" cy="20" r="0.9"/>
    <circle cx="19" cy="20" r="0.9"/>
  </g>
</svg> 